<?xml version="1.0" encoding="UTF-8" standalone="no"?>
<!-- Created with Inkscape (http://www.inkscape.org/) -->

<svg
   width="50"
   height="50"
   viewBox="0 0 13.229166 13.229167"
   version="1.1"
   id="svg1"
   xml:space="preserve"
   inkscape:version="1.3.2 (091e20e, 2023-11-25)"
   sodipodi:docname="emojify.svg"
   xmlns:inkscape="http://www.inkscape.org/namespaces/inkscape"
   xmlns:sodipodi="http://sodipodi.sourceforge.net/DTD/sodipodi-0.dtd"
   xmlns="http://www.w3.org/2000/svg"
   xmlns:svg="http://www.w3.org/2000/svg"><sodipodi:namedview
     id="namedview1"
     pagecolor="#ffffff"
     bordercolor="#666666"
     borderopacity="1.0"
     inkscape:showpageshadow="2"
     inkscape:pageopacity="0.0"
     inkscape:pagecheckerboard="0"
     inkscape:deskcolor="#d1d1d1"
     inkscape:document-units="mm"
     inkscape:zoom="3.3381532"
     inkscape:cx="30.106467"
     inkscape:cy="42.688274"
     inkscape:window-width="1440"
     inkscape:window-height="900"
     inkscape:window-x="0"
     inkscape:window-y="0"
     inkscape:window-maximized="0"
     inkscape:current-layer="layer1" /><defs
     id="defs1" /><g
     inkscape:label="Layer 1"
     inkscape:groupmode="layer"
     id="layer1"><path
       style="fill:#000000;stroke-width:0.0946486"
       d="M 6.2931197,13.007554 C 5.6902329,12.877308 5.2528132,12.345653 5.2217146,11.705343 c -0.01218,-0.250487 0.02436,-0.422914 0.1364806,-0.644156 0.074554,-0.147127 0.063083,-0.225569 -0.040847,-0.279314 -0.062882,-0.03252 -0.2612239,-0.03818 -1.3707078,-0.03912 -1.364831,-0.0012 -1.4173661,-0.0051 -1.5394109,-0.115471 -0.028092,-0.02543 -0.074607,-0.09128 -0.1033478,-0.146372 -0.05055,-0.0969 -0.052535,-0.14057 -0.060926,-1.3397692 C 2.2381957,8.459357 2.2288887,7.8761842 2.2222857,7.8451962 2.2069887,7.7734062 2.1412107,7.7724472 2.004837,7.8419162 1.5903015,8.0533938 1.2001389,8.0599473 0.80131888,7.8621342 0.28650728,7.6067789 -0.00378112,7.1525735 3.6983135e-5,6.6083939 0.00372698,6.0805778 0.33042598,5.5708064 0.81541028,5.3360592 c 0.1171603,-0.05671 0.28077382,-0.11504 0.36358742,-0.1296277 0.2260488,-0.039822 0.5384134,0.00541 0.7734928,0.1120176 0.1914847,0.086833 0.2829106,0.093091 0.2848668,0.01948 4.101e-4,-0.022515 9.43e-5,-0.6070454 -0.00123,-1.2989918 -0.00123,-0.8396928 0.00701,-1.2919707 0.025304,-1.359967 0.027682,-0.1028188 0.164081,-0.2766646 0.2604816,-0.3319967 0.03814,-0.0219 0.4341838,-0.033383 1.4671371,-0.042512 l 1.4148931,-0.012508 -0.00287,-0.087649 C 5.3994331,2.1560968 5.3666241,2.0434062 5.3278311,1.9538791 5.0536518,1.3209525 5.4503434,0.50641747 6.1595432,0.24610927 c 0.2183756,-0.080155 0.6868939,-0.078201 0.8955744,0.00373 0.5729407,0.2249595 0.9219979,0.6658844 0.9806929,1.23881153 0.013001,0.1268852 0.00504,0.1969895 -0.038755,0.3411966 -0.030307,0.099825 -0.071979,0.2072124 -0.09257,0.2386391 -0.020588,0.031414 -0.033834,0.094563 -0.029446,0.1402988 l 0.008,0.083162 1.3648105,1.148e-4 c 1.499769,1.231e-4 1.429809,-0.00668 1.582599,0.1541646 0.146721,0.154464 0.145323,0.139495 0.145323,1.5547448 0,1.1337502 0.0049,1.3044587 0.039,1.3530936 0.05137,0.07334 0.09212,0.070289 0.247342,-0.018537 0.355307,-0.2032905 0.683461,-0.1954246 1.138318,0.027273 0.491235,0.2405175 0.826697,0.7667424 0.828735,1.300009 4.1e-4,0.1605295 -0.06582,0.3958426 -0.138753,0.4914639 -0.03408,0.044665 -0.08307,0.1304849 -0.10888,0.1907096 -0.04879,0.1138138 -0.223662,0.3096784 -0.382124,0.4279953 -0.152607,0.1139368 -0.553604,0.2405748 -0.762724,0.2408701 -0.175855,2.461e-4 -0.462879,-0.073246 -0.636323,-0.1629409 -0.09374,-0.048475 -0.190262,-0.047339 -0.209373,0.00246 -0.0084,0.021777 -0.01522,0.6060899 -0.01522,1.2984464 v 1.258834 l -0.07146,0.09767 c -0.157667,0.215488 -0.0148,0.195565 -1.5500369,0.21614 -1.1630648,0.01558 -1.3745752,0.02399 -1.42442,0.05666 -0.098997,0.06487 -0.1005919,0.148432 -0.00787,0.411809 0.1154256,0.327895 0.1317603,0.630901 0.046326,0.85941 -0.1332522,0.356411 -0.435237,0.732347 -0.6737613,0.838754 -0.3326119,0.148378 -0.6712933,0.187712 -1.0016946,0.116328 z M 6.962305,12.325853 C 7.2167416,12.194166 7.3656938,11.97153 7.3881555,11.689337 7.401074,11.52697 7.3856948,11.468435 7.2100363,11.01192 c -0.1066984,-0.277312 -0.082539,-0.461837 0.085533,-0.65326 0.1151796,-0.131182 0.2451559,-0.189574 0.4827943,-0.216899 0.1128132,-0.01296 0.7192967,-0.02366 1.3477376,-0.02379 1.0333142,-1.68e-4 1.1459102,-0.0041 1.1769922,-0.0417 0.02809,-0.03392 0.03437,-0.2619373 0.03437,-1.2458577 V 7.6260696 l 0.06709,-0.1141337 c 0.03691,-0.062771 0.117427,-0.1605172 0.178936,-0.217219 0.198632,-0.1830897 0.418702,-0.2035214 0.775539,-0.071999 0.364104,0.1342045 0.416323,0.1471353 0.524392,0.1298532 C 12.277814,7.2895041 12.574197,6.934238 12.549168,6.5545578 12.521815,6.1396738 12.220564,5.824221 11.82108,5.7921544 11.669281,5.7799741 11.655986,5.7839112 11.414008,5.9129114 11.184457,6.0352802 11.150455,6.0461932 11.00108,6.045455 10.804416,6.0446348 10.676847,5.986153 10.539915,5.8345885 10.356551,5.6316249 10.363904,5.6928708 10.349981,4.2528338 10.340781,3.2984454 10.329601,2.9502781 10.307601,2.9282921 10.285131,2.9058181 9.9478398,2.8997481 8.9422778,2.9036031 8.0842941,2.9068831 7.5828357,2.8995031 7.5397618,2.8832211 7.4398708,2.8452451 7.2732351,2.6848466 7.2135436,2.5692159 7.1293926,2.4062135 7.1433206,2.2764463 7.2715166,2.0290964 7.3779444,1.8237501 7.3818404,1.8082848 7.3819142,1.5908562 7.3819839,1.3944884 7.3733042,1.3489559 7.3145332,1.2371549 7.2168152,1.0512727 7.0451881,0.88975727 6.8909538,0.83852917 6.6302097,0.75192417 6.2438857,0.83297917 6.072316,1.0102855 5.9375332,1.1495717 5.8829147,1.3096702 5.8827794,1.5658136 c -9.43e-5,0.2183936 0.00369,0.2327024 0.1174597,0.4614661 0.064666,0.1298491 0.1174023,0.2707097 0.1171891,0.313029 -1.887e-4,0.042319 -0.043131,0.1555016 -0.095371,0.2515084 -0.079906,0.1468482 -0.1145315,0.1846235 -0.2180639,0.2379051 l -0.1230741,0.063337 -1.365479,0.00517 -1.365483,0.00517 -0.04738,0.057436 c -0.04551,0.055172 -0.046748,0.1038933 -0.031332,1.2355929 0.013739,1.0089125 0.010581,1.1991135 -0.021982,1.3240578 C 2.7893052,5.750685 2.6759711,5.8845163 2.4418964,6.0015331 2.2591718,6.0928771 2.1035841,6.0758241 1.8273173,5.9341891 1.4655261,5.7487043 1.1610848,5.7789582 0.88418648,6.0279111 c -0.2099601,0.1887738 -0.2818115,0.5108007 -0.1859728,0.8335247 0.054278,0.1827739 0.244028,0.3727658 0.44946872,0.4500429 0.2148404,0.080816 0.3648219,0.064219 0.6628491,-0.073348 0.1480909,-0.068361 0.2851703,-0.1136334 0.3631117,-0.1199286 0.1687482,-0.013616 0.3888298,0.070297 0.5148649,0.1963322 0.1698513,0.1698513 0.1738007,0.2043416 0.1738007,1.5169368 0,1.2165189 0.005,1.2751189 0.1107257,1.2995369 0.028626,0.0066 0.6324066,0.01481 1.3417335,0.01817 1.2848431,0.0061 1.2900761,0.0064 1.395417,0.06266 0.1556574,0.08317 0.2769599,0.198723 0.359269,0.342229 0.092062,0.160505 0.094276,0.272642 0.00787,0.399768 -0.036049,0.05303 -0.098012,0.168088 -0.1377315,0.255687 -0.063046,0.139044 -0.072188,0.188762 -0.071974,0.391463 1.887e-4,0.195897 0.010212,0.253723 0.064125,0.369928 0.096532,0.208131 0.2377984,0.338849 0.4363164,0.403745 0.121811,0.03982 0.47978,0.01042 0.5942213,-0.04882 z M 6.3590983,8.2863269 C 5.69912,8.2015734 5.0879571,7.8703232 4.740286,7.4089285 4.3577432,6.9012528 4.2907189,6.6259457 4.5040665,6.4386237 c 0.069637,-0.061139 0.1107585,-0.077187 0.1978126,-0.077187 0.1517368,0 0.2379789,0.079467 0.3760672,0.3465146 C 5.2663305,7.0722647 5.5936806,7.3625121 5.9960071,7.5219589 6.2500335,7.6226328 6.4012987,7.6467842 6.6807438,7.6312943 7.0876348,7.6087384 7.4009838,7.4796971 7.729515,7.1993785 7.9354683,7.0236462 8.0486998,6.8797754 8.182039,6.6243832 8.3023162,6.3940119 8.3434461,6.3614368 8.5140685,6.3614368 c 0.1169101,0 0.1472378,0.010335 0.2078275,0.070941 0.039002,0.039002 0.084827,0.1172957 0.1018017,0.1739443 0.027354,0.091249 0.024525,0.1199614 -0.024689,0.2515781 -0.052842,0.1412953 -0.184496,0.3439473 -0.3119624,0.48019 -0.032235,0.034449 -0.08712,0.1076827 -0.1220037,0.1627769 -0.067188,0.1060956 -0.2482808,0.2864457 -0.394071,0.392447 -0.2260815,0.1643804 -0.6721874,0.331767 -1.0267401,0.3852454 -0.2616914,0.039494 -0.3310493,0.040396 -0.5851209,0.00775 z M 4.8383393,5.6771103 C 4.6735774,5.5901253 4.5823402,5.4451764 4.5699589,5.2507349 4.5620389,5.1264591 4.5707792,5.0710327 4.6115319,4.9914549 4.7825685,4.6561937 5.2029357,4.5818325 5.4805476,4.8377291 5.6289666,4.9745337 5.683097,5.1193232 5.643952,5.2747796 5.591954,5.4812784 5.526525,5.5785361 5.3849795,5.6597093 5.2133524,5.7581403 5.0044176,5.7647878 4.8383393,5.6770983 Z m 3.0403205,-0.00287 C 7.7047115,5.5932468 7.6145815,5.4585911 7.6000718,5.2580307 7.585718,5.0593528 7.6046651,4.9998293 7.7233592,4.8710629 7.8533314,4.7300587 8.0017627,4.6711833 8.1754239,4.6917503 8.5410373,4.7350539 8.7443536,5.1050596 8.5889997,5.4444013 8.4636864,5.7181172 8.1741321,5.8118069 7.8786598,5.6742403 Z"
       id="path1"
       sodipodi:nodetypes="ccccccccscccscccccccccccccccccccsccccccccccscsccccscccccscccsccccccccccscccccccscccccccccccccccscccsscccccsccscccccsssccsscccccscccccccsccccccccc" /></g></svg>
